<svg id="Layer_1" enable-background="new 0 0 56.69 56.69" height="512" viewBox="0 0 56.69 56.69" width="512" xmlns="http://www.w3.org/2000/svg"><path d="m31.15 8.345c-.021 1.266-1.266 2.292-2.807 2.292-1.537 0-2.781-1.026-2.805-2.292h-.017l.015-.024-.001-.006c0-.819 2.099-4.27 2.808-4.257.711.008 2.809 3.438 2.809 4.257v.006l.018.024zm17.12 22.748.025-.016h.008c.818 0 4.248-2.098 4.256-2.809.01-.711-3.438-2.808-4.256-2.808-.004 0-.008.001-.008.001l-.025-.016v.018c-1.264.021-2.289 1.268-2.289 2.805 0 1.54 1.025 2.786 2.289 2.807zm-39.849-5.647-.025.018c-.001 0-.004 0-.006 0-.818 0-4.25 2.097-4.258 2.808-.011.71 3.439 2.81 4.258 2.81.002 0 .005-.002.006-.002l.025.014v-.016c1.266-.023 2.291-1.27 2.291-2.806 0-1.54-1.025-2.784-2.291-2.806zm7.831-13.261-.027-.006c-.001-.003-.004-.005-.005-.005-.579-.579-4.488-1.521-4.997-1.025-.51.496.446 4.418 1.024 4.997.004.002.004.002.007.004l.007.026.01-.01c.912.88 2.518.723 3.605-.364 1.088-1.089 1.243-2.693.363-3.603zm28.178 3.991.006-.026c.004-.001.006-.004.008-.006.576-.578 1.52-4.488 1.021-4.997-.494-.508-4.416.446-4.994 1.025-.004.002-.004.004-.004.008l-.027.006.01.01c-.879.912-.723 2.517.365 3.604 1.088 1.089 2.691 1.243 3.602.363zm3.732 21.529c0-.553-.447-1-1-1h-36.25c-.553 0-1 .447-1 1s.447 1 1 1h36.25c.553 0 1-.447 1-1zm-3.25 4.643c0-.553-.447-1-1-1h-37.5c-.553 0-1 .447-1 1s.447 1 1 1h37.5c.553 0 1-.448 1-1zm5.375 4.643c0-.553-.447-1-1-1h-29.25c-.553 0-1 .447-1 1s.447 1 1 1h29.25c.553 0 1-.447 1-1zm-2.375 4.643c0-.553-.447-1-1-1h-29.5c-.553 0-1 .447-1 1s.447 1 1 1h29.5c.553 0 1-.447 1-1zm-19.566-35.657c-6.779 0-12.294 5.514-12.294 12.292 0 1.175.166 2.33.494 3.448h23.598c.328-1.117.492-2.271.492-3.448.001-6.778-5.513-12.292-12.29-12.292m0-2c7.894 0 14.291 6.398 14.291 14.292 0 1.93-.387 3.768-1.08 5.448h-26.424c-.693-1.68-1.081-3.518-1.081-5.448 0-7.894 6.401-14.292 14.294-14.292z"/></svg>